<svg xmlns="http://www.w3.org/2000/svg" width="121" height="102" viewBox="0 0 121 102" version="1.1"><path d="M 0 18.500 C 0 37, 0 37, 2.134 34.866 C 8.167 28.833, 43.125 39.637, 62.648 53.568 C 69.953 58.781, 70.900 58.615, 72.953 51.762 C 77.171 37.682, 95.289 9.425, 104.271 2.919 C 108.300 -0, 108.300 -0, 54.150 -0 C 0 0, 0 0, 0 18.500 M 116.144 2.981 C 118.117 5.649, 118.429 7.709, 119.121 22.594 C 120.181 45.418, 121 44.359, 121 20.167 C 121 0, 121 0, 117.470 -0 C 113.940 -0, 113.940 0, 116.144 2.981 M 0.079 71.750 C 0 102, 0 102, 31.750 101.924 C 57.425 101.862, 62.876 101.622, 60.239 100.665 C 52.829 97.978, 46.083 89.659, 46.022 83.133 C 46.003 81.073, 45.644 80.846, 43.250 81.379 C 28.373 84.689, 24.397 83.220, 18.383 72.189 C 16.378 68.510, 11.694 60.775, 7.975 55 C 4.256 49.225, 0.976 43.825, 0.685 43 C 0.395 42.175, 0.122 55.112, 0.079 71.750 M 118.690 53.549 C 117.695 54.916, 113.798 57.587, 110.031 59.484 C 103.182 62.934, 103.182 62.934, 105.157 66.717 C 108.643 73.394, 106.022 85.974, 100.373 89.675 C 96.865 91.974, 90.927 88.632, 81.832 79.240 C 74.336 71.500, 74.336 71.500, 73.195 80 C 71.727 90.936, 69.456 97.496, 66.271 100.002 C 63.730 102, 63.730 102, 92.365 102 C 121 102, 121 102, 121 76.500 C 121 62.475, 120.888 51.014, 120.750 51.031 C 120.612 51.049, 119.686 52.182, 118.690 53.549" stroke="none" fill="#ffffff" fill-rule="evenodd"/><path d="M 97.845 65.022 C 92.200 68, 78.906 72.209, 76.846 71.670 C 73.657 70.836, 74.768 72.427, 82.891 80.332 C 95.316 92.424, 100.226 93.330, 104.529 84.325 C 110.009 72.856, 105.836 60.806, 97.845 65.022 M 73.136 71.724 C 72.909 73.767, 67.307 76.047, 56.640 78.438 C 45.200 81.002, 44.767 81.483, 47.484 88.598 C 50.751 97.151, 61.638 103.646, 66.412 99.890 C 70.087 96.999, 74.913 79.147, 73.720 72.858 C 73.474 71.561, 73.211 71.051, 73.136 71.724" stroke="none" fill="#f8eb42" fill-rule="evenodd"/><path d="M 72 54.110 C 72 54.691, 72.563 54.965, 73.250 54.718 C 77.862 53.065, 79.390 59.355, 75.994 66.013 C 74.140 69.647, 73.788 69.870, 71.363 68.948 C 63.437 65.934, 59.961 59.157, 65.250 57.031 C 66.487 56.534, 66.915 56.098, 66.200 56.063 C 61.814 55.849, 52.324 64.975, 48.865 72.733 C 47.696 75.355, 46.338 78.299, 45.846 79.275 C 45.095 80.767, 45.315 80.970, 47.226 80.551 C 66.763 76.262, 73 74.167, 73 71.895 C 73 71.252, 74.132 71.090, 75.901 71.478 C 78.991 72.157, 89.299 69.117, 98.620 64.778 C 103.741 62.395, 103.741 62.395, 99.620 59.949 C 90.418 54.485, 72 50.591, 72 54.110" stroke="none" fill="#86c48b" fill-rule="evenodd"/><path d="M 71.151 56.694 C 70.569 57.735, 68.918 58.410, 66.870 58.444 C 60.548 58.550, 62.426 64.133, 70.101 68.051 C 73.846 69.962, 78 65.382, 78 59.340 C 78 55.325, 72.999 53.392, 71.151 56.694" stroke="none" fill="#0a0a0a" fill-rule="evenodd"/><path d="M 107.500 1.401 C 96.921 6.065, 68.637 51.185, 74.155 54.595 C 74.920 55.068, 75.035 54.866, 74.497 53.995 C 72.134 50.171, 91.544 54.780, 99.385 59.905 C 110.694 67.297, 121.527 54.111, 119.436 35.500 C 118.694 28.900, 118.068 19.765, 118.044 15.200 C 117.975 2.112, 114.929 -1.874, 107.500 1.401 M 4 34.233 C -0.797 36.754, -0.029 42.379, 6.395 51.758 C 9.418 56.173, 14.437 64.342, 17.548 69.912 C 24.056 81.562, 24.681 82.041, 33.184 81.882 C 41.310 81.729, 45.113 80.873, 45.982 79 C 50.528 69.196, 52.940 65.395, 57.057 61.543 C 61.323 57.553, 65.091 55.426, 63.589 57.856 C 63.298 58.326, 64.284 58.452, 65.780 58.135 C 68.298 57.603, 68.331 57.534, 66.235 57.208 C 64.990 57.015, 64.207 56.475, 64.496 56.007 C 68.024 50.299, 11.880 30.090, 4 34.233" stroke="none" fill="#3794bc" fill-rule="evenodd"/></svg>